<?xml version="1.0" encoding="UTF-8"?>
<svg width="413px" height="37px" viewBox="0 0 413 37" version="1.1" xmlns="http://www.w3.org/2000/svg" xmlns:xlink="http://www.w3.org/1999/xlink">
    <!-- Generator: Sketch 55.1 (78136) - https://sketchapp.com -->
    <title>Group 7</title>
    <desc>Created with Sketch.</desc>
    <g id="Form-Builder" stroke="none" stroke-width="1" fill="none" fill-rule="evenodd">
        <g id="Group-7" transform="translate(0.000000, 0.165000)">
            <path d="M239.162,4.303 C237.492,3.833 235.91,3.594 234.438,3.594 C232.07,3.594 230.174,4.059 228.75,4.995 C227.319,5.933 226.606,7.206 226.606,8.823 C226.606,10.227 227,11.377 227.79,12.26 C228.575,13.152 229.546,13.848 230.692,14.355 C231.844,14.866 233.42,15.437 235.421,16.054 C237.753,16.746 239.632,17.426 241.058,18.101 C242.489,18.777 243.703,19.747 244.705,21.031 C245.705,22.312 246.208,23.998 246.208,26.1 C246.208,27.943 245.688,29.566 244.656,30.974 C243.617,32.386 242.174,33.479 240.295,34.252 C238.425,35.023 236.272,35.409 233.845,35.409 C231.446,35.409 229.114,34.934 226.828,33.98 C224.547,33.032 222.584,31.765 220.944,30.193 L222.52,27.384 C224.061,28.891 225.852,30.072 227.889,30.926 C229.918,31.781 231.924,32.206 233.891,32.206 C236.516,32.206 238.606,31.672 240.15,30.606 C241.691,29.543 242.462,28.106 242.462,26.303 C242.462,24.854 242.069,23.674 241.281,22.754 C240.496,21.835 239.522,21.125 238.372,20.637 C237.226,20.148 235.619,19.573 233.548,18.909 C231.214,18.188 229.348,17.508 227.932,16.867 C226.527,16.223 225.326,15.275 224.342,14.017 C223.354,12.75 222.866,11.097 222.866,9.061 C222.866,7.324 223.354,5.793 224.342,4.483 C225.326,3.169 226.708,2.163 228.476,1.453 C230.25,0.745 232.303,0.395 234.633,0.395 C236.506,0.395 238.388,0.673 240.273,1.232 C242.156,1.791 243.826,2.53 245.268,3.449 L243.792,6.35 C242.377,5.467 240.833,4.787 239.162,4.303" id="Fill-1" fill="#3AAB47"></path>
            <polyline id="Fill-2" fill="#3AAB47" points="248.598 0.686 274.741 0.686 274.741 3.792 263.37 3.792 263.37 35.16 259.972 35.16 259.972 3.792 248.598 3.792 248.598 0.686"></polyline>
            <path d="M291.65,20.98 C294.934,20.98 297.464,20.235 299.238,18.74 C301.009,17.246 301.893,15.088 301.893,12.26 C301.893,9.504 301.009,7.404 299.238,5.962 C297.464,4.518 294.934,3.792 291.65,3.792 L282.198,3.792 L282.198,20.98 L291.65,20.98 Z M301.498,35.16 L294.067,23.936 C293.011,23.998 292.208,24.032 291.65,24.032 L282.198,24.032 L282.198,35.16 L278.798,35.16 L278.798,0.739 L291.65,0.739 C295.955,0.739 299.272,1.733 301.623,3.723 C303.966,5.706 305.144,8.515 305.144,12.162 C305.144,15.023 304.458,17.403 303.075,19.304 C301.695,21.214 299.726,22.544 297.167,23.295 L305.441,35.16 L301.498,35.16 L301.498,35.16 Z" id="Fill-3" fill="#3AAB47"></path>
            <polyline id="Fill-4" fill="#3AAB47" points="310.938 0.739 333.989 0.739 333.989 3.792 314.34 3.792 314.34 16.105 331.917 16.105 331.917 19.158 314.34 19.158 314.34 32.108 334.624 32.108 334.624 35.16 310.938 35.16 310.938 0.739"></polyline>
            <path d="M347.585,22.951 L364.036,22.951 L355.753,4.333 L347.585,22.951 Z M369.444,35.16 L365.363,26.006 L346.256,26.006 L342.22,35.16 L338.573,35.16 L354.085,0.739 L357.627,0.739 L373.143,35.16 L369.444,35.16 L369.444,35.16 Z" id="Fill-5" fill="#3AAB47"></path>
            <polyline id="Fill-6" fill="#3AAB47" points="377.032 0.686 381.272 0.686 394.76 26.547 408.101 0.686 412.342 0.686 412.342 35.16 409.186 35.16 409.136 5.421 395.65 31.474 393.775 31.474 380.231 5.421 380.231 35.16 377.032 35.16 377.032 0.686"></polyline>
            <polyline id="Fill-7" fill="#142539" points="43.959 0.639 54.938 0.639 64.201 19.799 73.412 0.639 84.388 0.639 84.388 35.16 75.377 35.16 75.377 14.674 67.496 31.765 60.85 31.765 52.971 14.674 52.971 35.16 43.959 35.16 43.959 0.639"></polyline>
            <path d="M109.358,16.746 C110.202,15.925 110.62,14.745 110.62,13.198 C110.62,11.692 110.202,10.533 109.358,9.732 C108.521,8.922 107.334,8.515 105.79,8.515 L100.865,8.515 L100.865,17.979 L105.79,17.979 C107.334,17.979 108.521,17.566 109.358,16.746 Z M116.651,3.844 C119.092,5.973 120.316,8.997 120.316,12.908 C120.316,17.013 119.092,20.194 116.651,22.458 C114.203,24.721 110.748,25.854 106.28,25.854 L100.865,25.907 L100.865,35.16 L90.621,35.16 L90.621,0.639 L106.28,0.639 C110.748,0.639 114.203,1.709 116.651,3.844 L116.651,3.844 Z" id="Fill-8" fill="#142539"></path>
            <polyline id="Fill-9" fill="#142539" points="125.046 0.639 135.288 0.639 135.288 26.593 149.759 26.593 149.759 35.16 125.046 35.16 125.046 0.639"></polyline>
            <path d="M165.174,9.754 C163.876,10.574 162.844,11.698 162.074,13.127 C161.3,14.553 160.917,16.135 160.917,17.88 C160.917,19.619 161.3,21.214 162.074,22.654 C162.844,24.098 163.876,25.244 165.174,26.074 C166.471,26.914 167.872,27.332 169.388,27.332 C170.865,27.332 172.232,26.914 173.497,26.074 C174.759,25.244 175.754,24.11 176.477,22.679 C177.196,21.255 177.558,19.648 177.558,17.88 C177.558,16.135 177.196,14.553 176.477,13.127 C175.754,11.698 174.769,10.574 173.52,9.754 C172.276,8.928 170.895,8.515 169.388,8.515 C167.872,8.515 166.471,8.928 165.174,9.754 Z M178.866,2.314 C181.739,3.862 183.984,5.985 185.613,8.695 C187.236,11.4 188.05,14.448 188.05,17.828 C188.05,21.241 187.236,24.319 185.613,27.064 C183.984,29.803 181.739,31.955 178.866,33.508 C175.99,35.074 172.782,35.852 169.237,35.852 C165.663,35.852 162.441,35.074 159.587,33.508 C156.728,31.955 154.489,29.803 152.863,27.064 C151.241,24.319 150.429,21.241 150.429,17.828 C150.429,14.448 151.241,11.4 152.863,8.695 C154.489,5.985 156.728,3.862 159.587,2.314 C162.441,0.773 165.663,-7.10542736e-14 169.237,-7.10542736e-14 C172.782,-7.10542736e-14 175.99,0.773 178.866,2.314 L178.866,2.314 Z" id="Fill-10" fill="#142539"></path>
            <polyline id="Fill-11" fill="#142539" points="220.944 0.639 208.531 24.233 208.531 35.16 198.294 35.16 198.294 24.429 185.633 0.639 195.883 0.639 203.416 14.729 210.752 0.639 220.944 0.639"></polyline>
            <path d="M18.988,12.424 L18.988,8.504 L35.604,8.504 L39.331,0.431 L9.516,0.431 L9.516,14.348 C11.956,14.104 14.565,13.471 17.13,12.855 C17.747,12.703 18.366,12.557 18.988,12.424" id="Fill-12" fill="#142539"></path>
            <path d="M18.988,27.135 L18.988,21.579 C19.084,21.556 19.178,21.538 19.277,21.509 C26.463,19.439 31.47,15.92 34.431,21.113 C34.108,20.445 33.809,19.945 33.661,19.701 C29.217,12.465 23.144,13.581 17.317,14.994 C10.504,16.641 3.342,18.426 7.10542736e-15,12.511 C1.722,17.921 5.16,20.963 9.516,22.004 L9.516,35.206 L39.331,35.206 L35.604,27.135 L18.988,27.135" id="Fill-13" fill="#142539"></path>
        </g>
    </g>
</svg>