<?xml version="1.0" encoding="UTF-8"?>
<svg width="594px" height="168px" viewBox="0 0 594 168" version="1.1" xmlns="http://www.w3.org/2000/svg" xmlns:xlink="http://www.w3.org/1999/xlink">
    <!-- Generator: Sketch 61 (89581) - https://sketch.com -->
    <title>entelo-logo-white</title>
    <desc>Created with Sketch.</desc>
    <g id="Entelo-+-ConveyIQ" stroke="none" stroke-width="1" fill="none" fill-rule="evenodd">
        <g id="enteloiq-cover" transform="translate(-460.000000, -637.000000)" fill="#008AC3" fill-rule="nonzero">
            <g id="entelo-logo-white" transform="translate(460.000000, 637.000000)">
                <path d="M92.2595745,123.529412 C96.0510638,126.070588 97.8765957,130.164706 97.8765957,135.952941 C97.8765957,141.6 96.4723404,146.258824 93.5234043,149.929412 C90.7148936,153.6 86.9234043,156.564706 82.2893617,158.964706 C72.6,163.905882 62.6297872,166.447059 52.3787234,166.305882 C41.987234,166.305882 33.8425532,165.176471 27.6638298,162.776471 C21.6255319,160.517647 16.5702128,157.270588 12.4978723,153.035294 C4.49361702,144.988235 0.561702128,133.694118 0.70212766,119.011765 C0.70212766,96.2823529 7.0212766,77.9294118 19.3787234,64.0941176 C32.5787234,49.1294118 50.693617,41.7882353 73.7234043,41.7882353 C88.0468085,41.7882353 98.5787234,44.8941176 105.740426,50.9647059 C110.93617,55.4823529 113.604255,61.4117647 113.604255,68.8941176 C113.46383,95.4352941 90.7148936,108.705882 45.0765957,108.564706 C44.5148936,112.517647 44.093617,116.047059 44.093617,119.435294 C44.093617,126.352941 45.6382979,131.152941 48.7276596,133.835294 C51.8170213,136.517647 56.1702128,137.788235 61.9276596,137.788235 C67.6851064,137.788235 73.5829787,136.517647 79.6212766,133.835294 C85.3787234,131.152941 89.7319149,127.764706 92.2595745,123.529412 Z M46.4808511,98.6823529 C57.1531915,98.6823529 65.5787234,95.4352941 71.7574468,88.8 C77.9361702,82.4470588 81.0255319,74.2588235 81.0255319,64.0941176 C81.0255319,60.5647059 80.4638298,57.8823529 79.2,56.0470588 C77.9361702,54.2117647 75.9702128,53.2235294 73.4425532,53.2235294 C70.9148936,53.2235294 68.5276596,53.6470588 66.2808511,54.6352941 C64.0340426,55.6235294 61.9276596,57.7411765 59.6808511,61.1294118 C54.0638298,68.7529412 49.7106383,81.1764706 46.4808511,98.6823529 Z" id="Shape"></path>
                <path d="M201.791489,166.588235 C183.676596,166.588235 174.548936,159.388235 174.548936,145.270588 C174.689362,141.317647 175.391489,136.094118 176.655319,129.458824 L180.72766,108.705882 C184.8,89.0823529 186.906383,77.0823529 186.906383,72.7058824 C186.906383,63.9529412 184.378723,59.5764706 179.323404,59.5764706 C170.757447,59.5764706 164.157447,70.7294118 159.66383,93.3176471 L146.182979,162.070588 L100.965957,166.447059 L124.697872,46.3058824 L161.629787,42.0705882 L157.978723,64.2352941 C165.140426,49.4117647 179.46383,42.0705882 201.089362,42.2117647 C211.621277,42.2117647 219.06383,44.4705882 223.417021,48.9882353 C227.770213,53.5058824 230.017021,60.7058824 230.017021,70.5882353 C230.017021,79.9058824 227.489362,95.5764706 222.714894,117.458824 C220.468085,127.2 219.344681,133.976471 219.344681,137.647059 C219.344681,141.317647 220.32766,144.282353 222.293617,146.4 C224.259574,148.517647 226.787234,149.788235 229.876596,150.070588 C228.331915,155.152941 224.961702,159.247059 219.765957,162.211765 C214.429787,165.176471 208.531915,166.729412 201.791489,166.588235 Z" id="Shape"></path>
                <path d="M238.021277,139.623529 C238.021277,135.529412 239.144681,128.329412 241.251064,118.164706 L253.32766,57.0352941 L239.987234,57.0352941 L240.970213,50.2588235 C258.944681,44.8941176 276.778723,35.5764706 294.191489,22.3058824 L305.004255,22.3058824 L299.52766,47.0117647 L317.080851,47.0117647 L314.974468,57.1764706 L297.702128,57.1764706 L286.046809,118.305882 C284.080851,127.623529 283.097872,133.976471 283.097872,137.082353 C283.097872,144.282353 286.187234,148.658824 292.506383,150.211765 C290.961702,155.294118 287.591489,159.388235 282.114894,162.352941 C276.638298,165.317647 270.178723,166.870588 262.455319,166.870588 C254.731915,166.870588 248.834043,164.470588 244.480851,159.529412 C240.12766,154.729412 238.021277,148.094118 238.021277,139.623529 Z" id="Shape"></path>
                <path d="M392.770213,124.376471 C396.561702,126.917647 398.387234,131.011765 398.387234,136.8 C398.387234,142.447059 396.982979,147.105882 394.034043,150.776471 C391.225532,154.447059 387.434043,157.411765 382.8,159.811765 C373.110638,164.752941 363.140426,167.294118 352.889362,167.152941 C342.497872,167.152941 334.353191,166.023529 328.174468,163.623529 C322.13617,161.364706 317.080851,158.117647 313.008511,153.882353 C305.004255,145.835294 301.07234,134.541176 301.212766,119.858824 C301.212766,97.1294118 307.531915,78.7764706 319.889362,64.9411765 C333.089362,49.9764706 351.204255,42.6352941 374.234043,42.6352941 C388.557447,42.6352941 399.089362,45.7411765 406.251064,51.8117647 C411.446809,56.3294118 414.114894,62.2588235 414.114894,69.7411765 C413.974468,96.2823529 391.225532,109.552941 345.587234,109.411765 C345.025532,113.364706 344.604255,116.894118 344.604255,120.282353 C344.604255,127.2 346.148936,132 349.238298,134.682353 C352.32766,137.364706 356.680851,138.635294 362.438298,138.635294 C368.195745,138.635294 374.093617,137.364706 380.131915,134.682353 C385.889362,132 390.242553,128.611765 392.770213,124.376471 Z M346.851064,99.5294118 C357.523404,99.5294118 365.948936,96.2823529 372.12766,89.6470588 C378.306383,83.2941176 381.395745,75.1058824 381.395745,64.9411765 C381.395745,61.4117647 380.834043,58.7294118 379.570213,56.8941176 C378.306383,55.0588235 376.340426,54.0705882 373.812766,54.0705882 C371.285106,54.0705882 368.897872,54.4941176 366.651064,55.4823529 C364.404255,56.4705882 362.297872,58.5882353 360.051064,61.9764706 C354.434043,69.6 350.080851,82.1647059 346.851064,99.5294118 Z" id="Shape"></path>
                <path d="M463.825532,150.352941 C459.191489,161.647059 449.361702,167.294118 434.476596,167.294118 C427.034043,167.294118 420.855319,164.611765 416.080851,159.388235 C412.148936,155.011765 410.182979,150.352941 410.323404,145.270588 C410.323404,133.976471 412.991489,115.905882 418.32766,91.2 L435.038298,4.37647059 L480.817021,7.1e-15 L458.489362,114.352941 C455.961702,125.505882 454.557447,132.988235 454.557447,136.941176 C454.697872,145.694118 457.646809,150.070588 463.825532,150.352941 Z" id="Shape"></path>
                <path d="M522.804255,167.576471 C489.804255,167.435294 473.374468,151.764706 473.374468,120.564706 C473.374468,98.4 479.553191,80.1882353 491.770213,65.7882353 C504.689362,50.5411765 522.382979,43.0588235 544.710638,43.0588235 C560.859574,43.0588235 573.217021,46.8705882 581.361702,54.4941176 C589.646809,62.1176471 593.719149,73.8352941 593.578723,89.6470588 C593.578723,113.788235 586.978723,132.847059 574.059574,146.823529 C561.561702,160.8 544.429787,167.576471 522.804255,167.576471 Z M528.982979,69.1764706 C527.157447,73.2705882 525.47234,78.3529412 524.068085,84.4235294 C522.66383,90.4941176 520.978723,98.4 519.153191,108 C517.32766,117.6 516.344681,128.470588 516.344681,140.329412 C516.344681,144.282353 516.906383,147.529412 518.170213,150.070588 C519.434043,152.611765 521.821277,153.882353 525.191489,153.882353 C528.702128,153.882353 531.510638,153.035294 533.617021,151.482353 C535.86383,149.788235 537.689362,147.105882 539.374468,143.152941 C542.46383,136.235294 545.131915,126.352941 547.519149,113.364706 C549.906383,100.517647 551.310638,91.2 551.591489,85.6941176 C551.87234,80.0470588 552.012766,75.2470588 552.012766,71.1529412 C552.012766,67.0588235 551.451064,63.5294118 550.187234,60.8470588 C548.923404,58.1647059 546.676596,56.7529412 543.306383,56.7529412 C539.93617,56.7529412 537.12766,57.7411765 534.880851,59.8588235 C532.774468,61.9764706 530.808511,65.0823529 528.982979,69.1764706 Z" id="Shape"></path>
            </g>
        </g>
    </g>
</svg>