<?xml version="1.0" encoding="UTF-8"?>
<svg width="666px" height="436px" viewBox="0 0 666 436" version="1.1" xmlns="http://www.w3.org/2000/svg" xmlns:xlink="http://www.w3.org/1999/xlink">
    <!-- Generator: Sketch 48.2 (47327) - http://www.bohemiancoding.com/sketch -->
    <title>Group 8</title>
    <desc>Created with Sketch.</desc>
    <defs></defs>
    <g id="Page-1" stroke="none" stroke-width="1" fill="none" fill-rule="evenodd">
        <g id="Group-8" transform="translate(3.000000, 4.000000)" stroke="#000000" stroke-width="7">
            <path d="M265.03287,45.7114677 C265.03287,213.279656 261.617545,185.823325 270.127081,276.457699 C274.295567,320.855902 273.295844,364.138321 288.764001,406.324203 C289.376293,407.994091 296.974845,426.222775 302.414334,426.431986 C364.40188,428.816123 426.508928,428.290174 488.514469,426.431986 C511.442463,425.744878 544.463855,417.296489 568.120484,411.490163 C604.794107,402.488923 504.572595,416.812571 585.752911,405.086525 C605.784907,402.193014 634.132282,409.786876 651.79828,399.059571 C655.517687,396.801039 654.851538,383.056067 654.901444,377.03249 C656.88186,137.996263 670.903395,249.897691 634.937159,118.573034 C628.253309,94.1680794 623.078033,69.3683523 616.479613,44.9401611 C613.272209,33.0659431 608.949685,21.425965 606.560252,9.42418342 C606.054737,6.88505651 609.071911,2.28522034 606.560252,1.65730547 L605.053513,0.150567022 C599.206914,-1.31108266 593.256302,8.58833953 588.013019,10.8232977 C566.566782,19.9647926 539.385975,21.0413157 516.927251,21.2628427 C459.883235,21.8255099 402.817038,19.8854896 345.786876,21.2628427 C337.143964,21.4715803 330.22351,27.1989145 322.719428,28.7068481 C298.900315,33.4932614 302.509443,31.0624535 285.965772,33.2988129 C285.266068,33.3933983 284.96128,34.2913469 284.459034,34.787614 L265.03287,45.7114677 Z" id="Path-50"></path>
            <path d="M2.07569235,67.1645532 C2.07569235,130.172528 -0.403720889,193.229306 2.07569235,256.188479 C2.17333484,258.667892 7.17049248,255.389568 9.51969778,256.188479 C13.5731086,257.566951 16.8164244,260.70667 20.6946746,262.520368 C27.280709,265.600385 33.6002464,270.382352 40.85627,270.843304 C81.0155417,273.394495 152.543368,273.945677 200.498796,265.695281 C208.057064,264.394934 215.072812,260.773363 222.597627,259.291643 C226.006045,258.620487 230.776731,261.944744 233.019234,259.291643 C235.311796,256.579316 232.797692,252.055188 231.512496,248.744474 C225.480104,233.20481 217.874869,224.176224 217.072919,205.264307 C216.575157,193.525883 217.582359,181.755312 217.072919,170.01739 C216.99282,168.17185 215.345841,166.608763 215.315057,164.761742 C212.984511,24.9289413 216.803858,103.638031 216.803858,43.45136 C216.803858,41.4662919 218.512621,48.3963032 216.803858,49.4065644 L213.790382,52.3841665 C199.453175,60.8606676 182.691004,53.8652846 168.30123,50.6083677 C143.728845,45.046764 77.1973254,40.0906472 53.3944864,43.5769216 C44.2428966,44.9173059 36.7904583,51.9934715 27.8875569,54.5007753 C21.7650534,56.225042 15.1515665,55.090584 8.87395273,56.1151379 C8.38416598,56.1950748 8.87395273,57.107672 8.87395273,57.603939 L2.07569235,67.1645532 Z" id="Path-51"></path>
            <path d="M7.90533516,319.345932 C7.90533516,340.804997 6.99537117,362.283363 7.90533516,383.723126 C8.2610196,392.103447 13.5261722,407.16375 14.1116626,414.288392 C14.565617,419.812416 12.2428344,415.151074 14.1116626,420.369158 C16.3944358,426.743045 28.5677116,421.15526 31.9772756,420.369158 C37.4003583,419.118822 43.1081212,419.731426 48.6052106,418.862419 C49.796379,418.674113 50.6282264,417.254731 51.8339358,417.230119 C77.4072873,416.708097 103.021408,418.470959 128.569972,417.230119 C136.754509,416.832614 144.559749,413.571365 152.65985,412.333219 C155.278189,411.932992 157.985164,412.716053 160.606102,412.333219 C161.7994,412.158917 162.638761,410.855086 163.834827,410.700919 C166.95404,410.298868 170.154359,411.130646 173.26988,410.700919 C173.969326,410.604444 174.052712,409.206046 174.758681,409.194181 C204.14191,408.700345 233.537628,408.697985 262.920817,409.194181 C263.417014,409.20256 263.402603,410.563969 262.920817,410.682982 C254.533323,412.754893 250.290183,401.732638 249.360171,395.615597 C246.624213,377.620154 246.191219,354.915502 244.839956,338.700346 C244.381154,333.194722 246.82321,327.282685 244.839956,322.126223 C243.869033,319.601824 239.037757,321.190538 237.306264,319.112746 C234.238198,315.431067 237.65737,311.595528 235.799525,311.579054 C179.16154,311.076828 122.489656,309.752901 65.8788907,311.579054 C28.1383806,312.79649 8.81386208,315.385449 7.90533516,319.345932 Z" id="Path-54"></path>
        </g>
    </g>
</svg>