<?xml version="1.0" encoding="UTF-8"?>
<svg width="416px" height="707px" viewBox="0 0 416 707" version="1.1" xmlns="http://www.w3.org/2000/svg" xmlns:xlink="http://www.w3.org/1999/xlink">
    <!-- Generator: Sketch 48.2 (47327) - http://www.bohemiancoding.com/sketch -->
    <title>Group 11</title>
    <desc>Created with Sketch.</desc>
    <defs></defs>
    <g id="Page-1" stroke="none" stroke-width="1" fill="none" fill-rule="evenodd">
        <g id="Group-11" transform="translate(4.000000, 4.000000)" stroke="#000000" stroke-width="7">
            <path d="M43.7369995,561.424575 C43.5954299,558.034994 41.3789867,554.942785 41.2630232,551.552231 C40.2334326,521.448963 42.0483554,491.219839 38.9539786,461.47593 C34.560831,419.24792 25.793052,377.351295 19.4920312,335.444506 C15.691553,310.16831 14.0742476,284.624145 9.76105759,259.434528 C6.81421735,242.22458 0.795115551,225.79987 0.524879193,208.140752 C-0.209501383,160.151229 -0.109497099,112.146276 0.524879193,64.1553277 C0.544331389,62.6837574 1.44610031,61.2438264 2.4804986,60.1969655 C14.8201807,47.7086125 68.550063,50.3904886 87.6324086,45.5180391 C104.306664,41.2604669 119.889669,34.899117 136.357962,30.014454 C146.762742,26.9282903 166.90306,25.2039037 174.881308,23.5821154 C206.667237,17.1207911 239.47097,13.6047771 273.157074,8.90318908 C296.810165,5.60191401 332.01433,-4.60015194 355.104595,2.47085055 C360.773806,4.20695047 361.165168,12.7844247 362.927073,18.4456693 C366.575813,30.1695773 368.027377,42.4804475 371.244346,54.3301073 C374.276499,65.4990043 382.38538,78.6383373 383.472857,91.1805741 C385.494509,114.496958 383.788001,113.921149 385.428477,143.72312 C394.331706,305.465127 395.170083,468.222968 397.020823,631.35564 C397.052922,634.185027 412.334761,683.556023 406.79892,684.157364 C334.559655,692.004491 261.467609,683.511382 188.806261,684.157364 C176.134645,684.270019 150.584634,686.713286 135.297686,688.233535 C131.148094,688.646201 49.7018387,698.83206 46.3759076,698.954099 C46.3759076,652.851385 45.6551689,607.35103 43.7369995,561.424575 Z" id="Path-68"></path>
            <path d="M30.3775272,140.400923 C30.3775272,197.985668 29.7329912,255.57402 30.3775272,313.155157 C30.5553276,329.039371 36.7143475,350.143052 38.8597319,367.040719 C43.9062516,406.788565 49.6249139,447.286153 54.6931805,487.205284 C56.7206311,503.17407 61.7890924,520.065926 63.5052487,535.930838 C65.4292435,553.717101 64.4262045,566.028345 65.6257999,585.221871 C66.0847304,592.56476 69.1593651,603.948576 69.7019704,610.008758 C69.9696892,612.998822 66.6397063,634.645534 75.5688286,635.761674 C96.5458374,638.3838 102.916825,614.106343 120.877938,613.82575 C204.825813,612.514299 288.794175,613.82575 372.752293,613.82575 C374.731474,613.82575 368.214242,615.225243 366.81475,613.82575 L364.835569,609.867388 C364.369071,609.400891 363.322885,610.333886 362.856388,609.867388 C362.38989,609.400891 363.322885,608.354705 362.856388,607.888207 C362.38989,607.42171 361.172245,608.478285 360.877207,607.888207 C359.66073,605.455254 360.114502,602.404436 358.898026,599.971483 C358.602987,599.381405 356.926431,600.631166 356.918844,599.971483 C356.089991,527.900666 358.884023,460.021684 354.6098,390.107603 C352.807067,360.620045 340.553596,332.636045 334.653057,303.400622 C332.226286,291.376687 333.398051,277.774197 332.344013,265.63125 C332.134176,263.213843 330.075765,261.153832 330.034968,258.727678 C329.304085,215.262523 330.68476,171.780223 330.034968,128.313781 C330.021022,127.38089 328.12569,127.264973 328.055787,126.3346 C327.447343,118.2365 329.358163,109.987636 328.055787,101.971823 C327.844182,100.669448 325.312428,101.457307 324.097425,101.971823 C256.470585,130.60972 283.799907,113.822151 152.521274,115.661159 C151.593907,115.67415 151.468044,117.563922 150.542093,117.616779 C139.799747,118.229994 129.004938,117.003564 118.262592,117.616779 C115.057881,117.799716 110.845467,118.749094 108.060385,119.572398 C103.715273,120.856865 100.215964,124.292483 95.8789964,125.604188 C91.1171614,127.044393 85.9396524,126.548575 81.1058233,127.724739 C80.2046582,127.94401 80.0117039,129.403151 79.1266423,129.680359 L74.8619782,129.680359 C73.9769166,129.957567 73.7637041,131.345838 72.8827972,131.635978 L62.9868917,133.591597 C49.7922305,137.937458 94.1893212,135.547217 50.8055034,135.547217 L30.3775272,140.400923 Z" id="Path-69"></path>
            <path d="M229.096733,621.436173 C218.474712,630.451359 207.518459,638.236993 206.218342,652.584713 C205.620135,659.186351 200.108423,669.900097 206.218342,672.470771 C220.740259,678.58069 237.807345,674.04836 253.483071,672.470771 C257.844526,672.031839 261.664316,669.10128 265.216788,666.533228 C266.409484,665.671037 267.107737,664.045143 267.172407,662.574865 C269.269675,614.893592 272.819388,612.176433 227.588785,612.176433" id="Path-70"></path>
            <polyline id="Path-71" points="121.490542 78.9049391 141.09386 78.9049391 145.334962 78.9049391 149.576064 78.9049391 153.817167 78.9049391 159.684025 78.9049391 161.639644 78.9049391 163.595264 78.9049391 165.550883 78.9049391 167.506502 78.9049391 169.462122 78.9049391 171.417741 78.9049391 173.373361 78.9049391 175.32898 78.9049391 177.284599 78.9049391 179.240219 78.9049391 181.195838 78.9049391 183.151458 78.9049391 185.107077 78.9049391 187.062696 78.9049391 189.018316 78.9049391 190.973935 78.9049391 192.929555 78.9049391 194.885174 78.9049391 196.840793 78.9049391 198.796413 78.9049391 200.752032 78.9049391 202.707652 78.9049391 204.663271 78.9049391 206.61889 78.9049391 208.57451 78.9049391 210.530129 78.9049391 212.485749 78.9049391 214.441368 78.9049391 216.396987 78.9049391 218.352607 78.9049391 220.308226 78.9049391 222.263846 78.9049391 224.219465 78.9049391 226.175084 78.9049391"></polyline>
            <path d="M134.920699,359.406734 C139.161802,353.767639 143.730073,348.360349 147.644006,342.489448 C149.405284,339.847532 149.962463,336.487026 151.885109,333.96012 C154.693089,330.269632 159.260332,328.030404 161.663206,324.064215 C164.606595,319.205849 165.201788,289.415108 165.739376,284.00936 C167.193874,269.383579 181.015305,300.140236 167.859928,261.319462 C167.600833,260.554889 160.860891,259.457721 157.351418,259.17535 C149.914254,258.576957 138.348628,252.524061 134.967823,259.17535 C109.018943,310.226355 165.194959,319.285835 193.047363,340.745884 C197.653916,344.295195 212.150422,363.761066 219.954801,361.786464 C220.853927,361.558974 221.880437,360.734256 221.91042,359.807283 C222.540624,340.32411 223.14375,320.781502 221.91042,301.327194 C221.792361,299.464943 218.13795,295.512125 217.952058,297.368832 L213.993696,293.41047 C210.864462,324.665555 207.291529,361.216104 249.053475,354.364535 C250.88392,354.064228 251.427055,351.44363 252.964714,350.406173 C255.387217,348.771713 258.459468,348.214637 260.787192,346.447811 C265.112318,343.164883 251.580191,344.46863 264.698431,344.46863" id="Path-72"></path>
            <path d="M127.757949,439.846308 C127.757949,447.888695 127.198369,455.950573 127.757949,463.973468 C128.070754,468.458271 134.159471,470.023362 135.580427,475.707185 C138.770646,488.468061 139.300086,501.215226 143.402904,513.523681 C144.744491,517.548442 149.105349,532.655868 151.225382,533.079875 C164.279141,535.690626 165.886471,522.721609 178.933917,521.039856 C192.2236,519.32688 212.049657,517.248101 222.970696,516.916562 C244.040839,516.276919 267.361475,526.354992 286.210244,516.916562 C295.648674,512.190314 286.830092,495.787082 286.210244,485.249665 C286.077465,482.992423 282.645317,477.714369 282.251882,475.35376 C280.048114,462.131152 275.69363,447.996388 274.335158,435.770138 C273.75232,430.524602 279.389641,421.455747 274.335158,419.936689 C257.516964,414.882205 239.200385,419.283225 221.651242,419.936689 C203.60779,420.60856 150.064779,422.665555 135.462618,429.879718 C130.810404,432.178134 117.649988,428.592416 117.649988,433.790957" id="Path-73"></path>
        </g>
    </g>
</svg>