<?xml version="1.0" encoding="UTF-8"?>
<svg width="194px" height="186px" viewBox="0 0 194 186" version="1.1" xmlns="http://www.w3.org/2000/svg" xmlns:xlink="http://www.w3.org/1999/xlink">
    <!-- Generator: Sketch 48.2 (47327) - http://www.bohemiancoding.com/sketch -->
    <title>Path 67</title>
    <desc>Created with Sketch.</desc>
    <defs></defs>
    <g id="Page-1" stroke="none" stroke-width="1" fill="none" fill-rule="evenodd">
        <path d="M11.300774,172.935201 C15.0428972,164.603341 17.0068829,156.208752 19.6064061,148.316224 C21.0991007,143.784187 24.8925106,139.999263 26.4766083,135.189714 C28.4872893,129.084995 30.3703846,125.128792 35.4683578,122.180566 C36.5541532,121.552636 37.2287871,120.114165 38.4656077,119.905545 C41.9136922,119.32394 45.4682916,120.157667 48.9559821,119.905545 C53.013964,119.612197 61.3601049,115.966535 66.1901688,115.355503 C67.9247398,115.136069 70.0184182,116.379796 71.435356,115.355503 C71.8355125,115.066233 70.9501247,109.349767 70.6770157,108.53044 C70.495508,107.985917 67.8100746,104.609199 66.8853141,103.222058 C62.4384563,96.5517713 55.8228999,86.5976093 54.4990888,79.0093348 C51.9558876,64.4313425 50.9959976,52.2169224 51.4657275,36.4158867 C51.5217996,34.5297016 60.0819916,26.3688565 61.2067895,25.0407818 C73.1927505,10.8886832 99.2276003,1.55347329 118.4344,4.56559309 C119.608645,4.7497449 124.642177,9.98832121 125.178212,10.5600928 C128.802033,14.4255013 132.794079,17.9343712 136.417899,21.7997797 C136.588728,21.9819968 136.268037,22.3492755 136.417899,22.5490922 C142.194841,30.251681 143.49328,34.5449327 144.786727,44.0354013 C146.733485,58.3194475 150.410628,84.0688674 144.777699,100.76648 C144.696897,101.005998 144.199168,100.588811 144.019358,100.76648 L142.502678,103.76373 C142.143058,104.119068 141.268758,103.344638 140.985997,103.76373 C140.566906,104.384883 141.405089,105.390514 140.985997,106.011667 C140.703237,106.430758 139.949502,105.853511 139.469316,106.011667 C138.398134,106.364477 137.320705,106.810918 136.435955,107.510292 C135.996747,107.857475 136.179555,108.760934 135.677615,109.008917 C134.997724,109.344816 132.644254,109.008917 133.402594,109.008917 C139.896635,109.008917 146.40842,108.529191 152.884718,109.008917 C153.441696,109.050175 153.134489,110.257771 153.63403,110.507542 L155.132655,110.507542 C155.356057,110.619243 154.915793,111.132933 155.132655,111.256854 C156.784226,112.200609 158.764782,112.496629 160.377842,113.504792 C160.851453,113.800798 160.680351,114.668314 161.127155,115.003417 C163.541231,116.813973 167.05733,118.393 168.62028,120.997916 C173.553639,129.220182 178.271684,137.998937 181.990542,146.989128 C184.52014,153.10433 186.491987,159.991361 189.610056,166.2275 C189.721757,166.450902 190.60914,166.2275 190.359369,166.2275 C170.85972,166.2275 186.582862,163.717182 151.44026,165.469159 C149.908769,165.54551 148.65081,166.794157 147.161054,167.157369 C142.443515,168.307539 137.483138,168.186897 132.689393,168.84558 C130.664264,169.123841 128.79761,170.166868 126.776144,170.470594 C113.174126,172.514303 99.4039195,173.456356 85.266039,174.469937 C75.3743987,175.179094 66.2291758,177.592344 55.9525744,177.783162 C-38.1735143,179.530913 27.6472224,187.578392 11.5535541,175.508141 C11.1760756,175.225032 8.8213583,174.393014 8.52019277,173.99146 C7.50676302,172.640221 15.072969,164.713049 16.0133174,161.858015" id="Path-67" stroke="#000000" stroke-width="7"></path>
    </g>
</svg>