<?xml version="1.0" encoding="UTF-8"?>
<svg width="251px" height="163px" viewBox="0 0 251 163" version="1.1" xmlns="http://www.w3.org/2000/svg" xmlns:xlink="http://www.w3.org/1999/xlink">
    <!-- Generator: Sketch 48.2 (47327) - http://www.bohemiancoding.com/sketch -->
    <title>Group 9</title>
    <desc>Created with Sketch.</desc>
    <defs></defs>
    <g id="Page-1" stroke="none" stroke-width="1" fill="none" fill-rule="evenodd">
        <g id="Group-9" transform="translate(4.000000, 4.000000)" stroke="#000000" stroke-width="7">
            <path d="M0.147160624,2.29502206 C0.147160624,7.94712844 -0.18395078,13.6086133 0.147160624,19.2513412 C0.192977728,20.0321462 13.8597556,24.3718515 15.2857911,24.4407752 C22.0836013,24.7693293 29.8054631,27.7785973 35.7038599,24.4407752 C41.0613511,21.4090441 28.1418445,0.369956705 27.1549862,0.281771774 C20.0601819,-0.352214718 12.9068634,0.281771774 5.78280204,0.281771774" id="Path-55"></path>
            <path d="M61,11.816823 C103.289583,11.816823 145.581065,12.2289713 187.86875,11.816823 C195.821171,11.7393164 204.758006,8.46598314 212.563274,8.18130862 C222.598059,7.81531895 232.670258,8.90661581 242.686553,8.18130862 C243.391808,8.13023922 242.686553,6.72710287 242.686553,6" id="Path-56"></path>
            <path d="M29.3120825,56 C25.1990471,57.4933714 20.7784987,58.3158277 16.9729764,60.4801143 C10.1111054,64.3826155 3.08039226,71.5124414 7.2508734,80.5835167 C10.1811822,86.9571342 42.56359,85.9417794 42.5867355,85.9393473 C43.1372155,85.8815036 43.5051624,84.8895578 43.6360652,82.7410788 C43.9635781,77.36568 44.2572985,71.9339591 43.6360652,66.5847459 C43.5693961,66.0106822 39.8487278,61.7166354 39.3881762,61.2542983 C38.5031994,60.3658904 37.0872365,60.0105274 36.2022595,59.1221193 C35.9519503,58.8708396 36.5514338,58.1144511 36.2022595,58.0560298 C34.1072136,57.7055017 31.9543705,58.0560298 29.8304261,58.0560298" id="Path-57"></path>
            <path d="M64,68.6327068 C97.3672129,68.6327068 154.042774,70.0065699 195.882559,67.4400859 C200.860394,67.1347417 205.363481,65.1260105 210.025865,63.7704834 C221.422449,60.4570758 232.082965,59 244,59" id="Path-58"></path>
            <path d="M29.5465733,129.400873 C22.958101,129.400873 16.3601665,129.055411 9.78115645,129.400873 C6.0360728,129.597527 6.48405939,135.493156 8.70792114,142.893281 C9.42342315,145.274186 23.0684936,153.9686 24.6148016,154.309933 C29.8453313,155.464525 35.3801644,154.961791 40.7005546,154.309933 C41.4924206,154.212913 41.7085572,152.988534 41.7610133,152.209169 C42.0667055,147.667357 42.0923609,143.094291 41.7610133,138.554203 C41.6904991,137.588025 38.8905467,131.429397 38.5413073,131.201528 C37.3506597,130.424665 35.5282739,131.827855 34.2483661,131.201528 L34.2483661,130.151146 C33.6084122,129.837983 32.6972193,130.539578 32.1018955,130.151146 C31.4363032,129.716867 31.5943049,128.603982 31.0286602,128.050382 C30.7756962,127.802805 30.2083889,128.297959 29.9554249,128.050382 C29.7024609,127.802805 29.9554249,127.350127 29.9554249,127" id="Path-59"></path>
            <path d="M65,138.813742 C104.860081,138.813742 144.722164,139.232823 184.580243,138.813742 C188.264233,138.775007 192.941086,136.587657 196.48028,136.314299 C209.638587,135.297985 223.172894,134 236,134" id="Path-60"></path>
        </g>
    </g>
</svg>