<?xml version="1.0" encoding="UTF-8"?>
<svg width="474px" height="390px" viewBox="0 0 474 390" version="1.1" xmlns="http://www.w3.org/2000/svg" xmlns:xlink="http://www.w3.org/1999/xlink">
    <!-- Generator: Sketch 48.2 (47327) - http://www.bohemiancoding.com/sketch -->
    <title>Group 10</title>
    <desc>Created with Sketch.</desc>
    <defs></defs>
    <g id="Page-1" stroke="none" stroke-width="1" fill="none" fill-rule="evenodd">
        <g id="Group-10" transform="translate(4.000000, 2.000000)" stroke="#000000" stroke-width="7">
            <path d="M214.516839,376.60987 C200.851874,367.604935 186.676049,359.331063 173.521944,349.595065 C168.669829,346.003776 165.257517,340.766809 160.716411,336.789532 C156.699368,333.271249 151.725206,330.900987 147.910878,327.163896 C145.510162,324.811793 144.839997,320.999117 142.324572,318.770113 C134.331407,311.687097 124.613359,306.705782 116.713506,299.518842 C112.763579,295.925371 110.824961,290.527637 107.08787,286.713308 C104.735767,284.312593 101.133211,283.439251 98.6940864,281.127002 C83.1011067,266.345122 68.6940005,250.345669 53.1155558,235.548471 C51.3769145,233.897022 41.9931792,223.971261 41.0835113,223.516427 C39.6486062,222.798974 37.7055985,224.233879 36.2706934,223.516427 C34.747013,222.754587 32.9641804,217.157946 31.4578756,216.2972 C26.1538754,213.266343 19.58402,212.628692 14.6130133,209.077973 C13.307563,208.145509 15.3304658,205.700061 14.6130133,204.265156 C14.1494326,203.337994 3.99552322,196.054074 2.58096874,194.63952 C2.01377272,194.072324 -0.627576474,194.63952 0.174559828,194.63952 C7.90223039,194.63952 19.3736197,194.370866 23.9521717,187.420293 C35.8153115,169.411189 45.8951429,145.235212 58.6445667,124.653128 C66.382257,112.161756 75.8943714,101.938105 82.8232467,90.218562 C87.4506007,82.3918266 90.5608903,72.770148 95.3136549,65.0372116 C98.0633448,60.5633572 102.445306,57.2066007 105.025234,52.6327466 C108.17088,47.0559519 123.253372,19.3147523 126.625618,11.3513748 C127.251199,9.87410038 125.915023,7.97687021 126.625618,6.53855696 C128.852406,2.031325 140.679995,6.48052625 143.269947,6.50990924 C212.335167,7.29345398 282.072971,-3.04214808 350.478942,6.50990924 C360.031,7.84373723 348.921428,25.9259686 350.478942,35.4441116 C350.789283,37.3406357 354.384876,36.5633071 355.635533,38.0224068 C359.66878,42.7278621 361.915467,48.7867232 365.948714,53.4921784 C367.199371,54.9512781 369.567906,54.917425 371.105304,56.0704737 C373.049976,57.5289777 374.803391,59.2823921 376.261895,61.2270642 C377.414944,62.7644624 377.481309,65.0247738 378.84019,66.3836547 C403.566033,91.109498 444.862667,114.959667 465.069843,135.166843 C468.112475,138.209475 455.998303,138.459735 453.037798,139.922365 C449.171348,141.832576 444.715399,142.478598 441.005754,144.677887 C440.323977,145.082084 441.569543,146.498571 441.005754,147.055649 C440.435171,147.619438 439.243805,146.578057 438.599345,147.055649 C435.881357,149.069872 434.098106,152.174709 431.380118,154.188932 C430.735658,154.666523 429.5805,153.664311 428.973709,154.188932 C423.002434,159.351597 418.076582,165.643494 412.128847,170.83326 C410.674397,172.102358 408.314295,172.052419 406.943608,173.411556 C404.801527,175.535586 404.072338,178.821877 401.930257,180.945907 C400.55957,182.305043 398.114969,182.164325 396.745018,183.524203 C395.378088,184.881082 395.409338,187.233896 394.138075,188.680793 C389.551961,193.900515 383.673034,197.927018 379.327201,203.348428 C376.917888,206.354038 376.531855,210.663419 374.113315,213.661609 C372.901373,215.164017 370.14002,214.737497 368.928077,216.239905 C366.509537,219.238095 366.132731,223.554896 363.714191,226.553086 C362.502249,228.055494 359.898904,227.771503 358.528953,229.131381 C351.948881,235.66307 344.981892,247.057403 340.337648,254.914334 C325.334729,280.295616 310.959521,307.552772 293.871038,332.291839 C289.615686,338.452329 262.63522,372.992308 257.57437,375.492608 C256.136057,376.203204 254.199865,374.782013 252.761552,375.492608 C252.050957,375.843676 253.550961,377.79946 252.761552,377.87037 C243.973436,378.659778 234.803647,380.191986 226.291054,377.87037 C223.969438,377.237202 227.669505,372.623623 226.291054,370.651143 L221.105816,368.0442 C220.186848,366.729213 222.240208,364.365774 221.105816,363.231382 C219.873112,361.998678 199.690809,356.012155 194.635318,356.012155" id="Path-61"></path>
            <path d="M15.0636833,185.316989 C26.3417556,185.316989 53.7730574,186.012256 67.9495142,183.496543 C88.435372,179.861182 109.54244,172.642569 130.179066,170.233289 C135.966426,169.557628 141.906899,171.162052 147.659068,170.233289 C149.219468,169.981342 149.438817,167.100058 151.002746,166.871036 C171.308766,163.89742 184.136059,165.200249 206.136271,161.799792 C233.013101,157.645581 251.415771,154.87787 280.978917,151.657304 C285.345979,151.181562 292.482421,148.462632 295.895433,148.406506 C327.006002,147.894899 358.14378,149.487846 389.23976,148.406506 C390.819415,148.351575 391.01755,145.259473 392.583438,145.044253 C406.584208,143.119943 433.568744,141.793455 449.128738,141.793455" id="Path-62"></path>
            <path d="M151.968697,153.700662 C151.968697,121.63721 143.625496,99.1724588 137.015028,67.6566969 C134.306954,54.7458042 133.746795,41.2857235 131.683721,28.0155437 C130.404533,19.7875058 125.182126,6.74130819 125.182126,0.523085098 C125.182126,0.00914949728 125.182126,1.5509563 125.182126,2.0648919" id="Path-63"></path>
            <path d="M331.728509,143.093774 C331.728509,123.719021 330.715635,104.317775 331.728509,84.9695155 C332.829758,63.9331077 347.425217,41.584818 347.425217,23.4644273" id="Path-64"></path>
            <path d="M152.804616,156.747124 C152.804616,142.579839 151.123282,128.312432 152.804616,114.245269 C154.729805,98.1378518 158.487446,104.661771 164.117391,96.1151068 C170.476588,86.461387 177.66808,74.0742118 186.092782,64.1829876 C224.327013,19.2931681 134.867216,136.97878 204.222944,45.9227938 C209.788484,38.6158884 214.978353,31.023419 220.031108,23.3529714 L229.411981,13.7491868 C229.984229,12.8804732 228.951211,11.5610638 229.411981,10.6284212 C230.558987,8.30676934 231.476419,4.77037625 234.037401,4.38689009 C236.578745,4.00634458 238.948653,6.77048724 240.204628,9.0123105 C245.816042,19.0282716 248.848779,30.3295704 254.248073,40.4614541 C259.569442,50.4471093 270.086872,59.8324803 276.576408,68.4926163 C284.981179,79.7085889 291.795351,92.9097772 300.242214,104.28854 C309.791672,117.152609 314.869547,118.915874 323.369316,127.415642 C323.732723,127.77905 324.748602,126.92808 324.911122,127.415642 C343.173897,182.203966 320.591761,129.263508 327.994736,136.666483 C328.358143,137.029891 328.508635,138.214408 327.994736,138.20829 C327.259217,138.199534 326.954481,137.168035 326.434353,136.647907" id="Path-65"></path>
            <path d="M144.241087,171.496456 C144.241087,209.997594 153.644457,206.4202 174.371335,238.147092 C194.795175,269.410119 212.46137,300.248018 227.201438,330.971292 C234.481061,346.144482 244.409574,357.760042 248.916766,374.66201 C249.711298,377.641506 248.916766,386.996465 248.916766,383.912851 C248.916766,369.78891 248.019001,355.636408 248.916766,341.541028 C250.259311,320.462339 265.813746,301.190393 274.25441,283.026674 C275.516912,280.309856 275.050182,277.043495 276.05628,274.221656 C280.294698,262.334025 284.962692,250.594498 289.951118,239.001588 C303.322156,207.927808 319.91191,176.334703 324.669635,142.629375" id="Path-66"></path>
        </g>
    </g>
</svg>