<?xml version="1.0" encoding="UTF-8"?>
<svg width="235px" height="76px" viewBox="0 0 235 76" version="1.1" xmlns="http://www.w3.org/2000/svg" xmlns:xlink="http://www.w3.org/1999/xlink">
    <!-- Generator: Sketch 55.1 (78136) - https://sketchapp.com -->
    <title>HSADlogo_240x240-01</title>
    <desc>Created with Sketch.</desc>
    <g id="Portfolio" stroke="none" stroke-width="1" fill="none" fill-rule="evenodd">
        <g id="HSADlogo_240x240-01" fill-rule="nonzero">
            <g id="Group" transform="translate(64.000000, 0.000000)" fill="#1E3923">
                <path d="M80.8,56.1 C80.9,61.2 79.6,65.5 76.9,69.1 C75.1,71.5 72.6,73.3 69.3,74.3 C67.6,74.8 65.5,75.1 63.2,75.1 C58.9,75.1 55.3,74 52.5,71.9 C50.1,70.2 48.3,67.8 46.9,64.8 C45.5,61.8 44.7,58.4 44.5,54.5 L55,53.7 C55.5,57.9 56.6,61 58.4,62.9 C59.7,64.3 61.2,65 62.9,64.9 C65.3,64.8 67.2,63.6 68.6,61.4 C69.3,60.3 69.7,58.7 69.7,56.6 C69.7,53.6 68.3,50.6 65.6,47.6 C63.4,45.5 60.2,42.5 55.8,38.4 C52.2,34.9 49.6,31.7 48.1,28.9 C46.5,25.8 45.7,22.4 45.7,18.7 C45.7,12.1 47.9,7.1 52.4,3.6 C55.1,1.5 58.6,0.5 62.6,0.5 C66.5,0.5 69.9,1.4 72.6,3.1 C74.8,4.5 76.5,6.4 77.9,8.8 C79.2,11.2 80,14 80.3,17.2 L69.8,19.1 C69.5,16.1 68.6,13.8 67.2,12.1 C66.2,10.9 64.7,10.3 62.8,10.3 C60.8,10.3 59.3,11.2 58.2,13 C57.3,14.4 56.9,16.2 56.9,18.3 C56.9,21.6 58.3,25 61.2,28.5 C62.3,29.8 63.9,31.4 66.1,33.1 C68.7,35.2 70.3,36.7 71.2,37.6 C73.9,40.3 76,43 77.5,45.6 C78.2,46.8 78.8,48 79.2,49 C80.2,51.7 80.8,54.1 80.8,56.1 Z" id="Path"></path>
                <polygon id="Path" points="114.6 1.5 99.5 1.5 87.2 74.2 98.6 74.2 101.3 57.5 109.6 57.5 108.3 46.8 103 46.8 107 18.1 110.9 45.5 113.1 60.1 115.3 74.2 126.8 74.2"></polygon>
                <g transform="translate(0.000000, 1.000000)" id="Path">
                    <polygon points="21.6 31.4 11.1 31.4 11.1 0.5 0.2 0.5 0.2 73.2 11.1 73.2 11.1 42.4 21.6 42.4"></polygon>
                    <polygon points="24.4 0.5 24.4 28.8 24.4 31.4 24.4 42.4 24.4 47.6 24.4 73.2 35.4 73.2 35.4 0.5"></polygon>
                </g>
                <path d="M165.5,6.5 C162.1,3.1 158.1,1.4 153.3,1.4 L136.1,1.4 L136.1,74.2 L147.1,74.2 L147.1,63.3 L147.1,12.6 L153.7,12.6 C155.4,12.6 156.9,13.2 158.1,14.5 C159.3,15.7 159.9,17.2 159.9,19 L159.9,57 C159.9,58.7 159.3,60.2 158.1,61.4 C156.9,62.7 155.4,63.3 153.7,63.3 L149.7,63.3 L149.7,74.2 L153.4,74.2 C158.2,74.2 162.2,72.5 165.6,69.1 C169,65.7 170.7,61.6 170.7,56.8 L170.7,18.8 C170.6,14 168.9,9.9 165.5,6.5 Z" id="Path"></path>
            </g>
            <g id="Group" transform="translate(0.000000, 13.000000)">
                <polygon id="Path" fill="#1E3923" points="65.6 30 10.9 30 0 19.7 65.6 19.7"></polygon>
                <polygon id="Path" fill="#397F3D" points="60 10.7 18.2 10.7 9.8 0.5 60 0.5"></polygon>
                <polygon id="Path" fill="#397F3D" points="60 49.2 18.2 49.2 9.8 39 60 39"></polygon>
            </g>
        </g>
    </g>
</svg>